<svg xmlns="http://www.w3.org/2000/svg" viewBox="0 0 64 64" role="img" aria-label="Enterprise Shop">
  <defs>
    <linearGradient id="bg" x1="8" y1="4" x2="56" y2="60" gradientUnits="userSpaceOnUse">
      <stop offset="0%" stop-color="#2563EB"/>
      <stop offset="55%" stop-color="#4F46E5"/>
      <stop offset="100%" stop-color="#312E81"/>
    </linearGradient>
    <linearGradient id="sheen" x1="12" y1="6" x2="40" y2="36" gradientUnits="userSpaceOnUse">
      <stop offset="0%" stop-color="#FFFFFF" stop-opacity="0.28"/>
      <stop offset="100%" stop-color="#FFFFFF" stop-opacity="0"/>
    </linearGradient>
    <filter id="soft" x="-20%" y="-20%" width="140%" height="140%">
      <feDropShadow dx="0" dy="2" stdDeviation="1.5" flood-color="#1E3A8A" flood-opacity="0.35"/>
    </filter>
  </defs>

  <!-- Rounded tile matching header logo -->
  <rect x="2" y="2" width="60" height="60" rx="16" fill="url(#bg)"/>
  <rect x="2" y="2" width="60" height="60" rx="16" fill="url(#sheen)"/>

  <!-- Stylized E mark -->
  <g fill="#FFFFFF" filter="url(#soft)">
    <path d="M18 18h28a3 3 0 0 1 0 6H24v5h18a3 3 0 0 1 0 6H24v5h22a3 3 0 0 1 0 6H18a3 3 0 0 1-3-3V21a3 3 0 0 1 3-3z"/>
  </g>

  <!-- Spark accent (like header Sparkles) -->
  <g fill="#FDE68A">
    <path d="M47.5 14.5l1.15 2.85 2.85 1.15-2.85 1.15-1.15 2.85-1.15-2.85-2.85-1.15 2.85-1.15z"/>
  </g>
  <circle cx="42" cy="21" r="1.4" fill="#93C5FD" opacity="0.95"/>
</svg>
